<?xml version="1.0" encoding="UTF-8"?>
<svg xmlns="http://www.w3.org/2000/svg" xmlns:xlink="http://www.w3.org/1999/xlink" width="250" height="250" viewBox="0 0 1000 1000">
<path fill-rule="evenodd" fill="#F8B319" d="M 780.273438 93.5 C 697.800781 93.5 630.945312 160.359375 630.945312 242.828125 C 630.945312 325.308594 697.800781 392.171875 780.273438 392.171875 C 862.746094 392.171875 929.605469 325.308594 929.605469 242.828125 C 929.605469 160.359375 862.746094 93.5 780.273438 93.5 Z M 780.273438 116.140625 C 762.988281 116.140625 748.972656 130.160156 748.972656 147.441406 C 748.972656 164.730469 762.988281 178.738281 780.273438 178.738281 C 797.5625 178.738281 811.574219 164.730469 811.574219 147.441406 C 811.574219 130.160156 797.5625 116.140625 780.273438 116.140625 Z M 670.554688 179.488281 C 661.914062 194.460938 667.042969 213.601562 682.015625 222.25 C 696.984375 230.890625 716.128906 225.761719 724.769531 210.789062 C 733.414062 195.820312 728.285156 176.671875 713.3125 168.03125 C 698.34375 159.390625 679.199219 164.519531 670.554688 179.488281 Z M 670.554688 306.179688 C 679.199219 321.148438 698.34375 326.28125 713.3125 317.640625 C 728.285156 308.988281 733.414062 289.851562 724.769531 274.878906 C 716.128906 259.910156 696.984375 254.78125 682.015625 263.421875 C 667.042969 272.070312 661.914062 291.210938 670.554688 306.179688 Z M 780.273438 369.53125 C 797.5625 369.53125 811.574219 355.511719 811.574219 338.230469 C 811.574219 320.941406 797.5625 306.921875 780.273438 306.921875 C 762.988281 306.921875 748.972656 320.941406 748.972656 338.230469 C 748.972656 355.511719 762.988281 369.53125 780.273438 369.53125 Z M 889.992188 306.179688 C 898.636719 291.210938 893.507812 272.070312 878.535156 263.421875 C 863.566406 254.78125 844.421875 259.910156 835.777344 274.878906 C 827.136719 289.851562 832.265625 308.988281 847.234375 317.640625 C 862.207031 326.28125 881.351562 321.148438 889.992188 306.179688 Z M 889.992188 179.488281 C 881.351562 164.519531 862.207031 159.390625 847.234375 168.03125 C 832.265625 176.671875 827.136719 195.820312 835.777344 210.789062 C 844.421875 225.761719 863.566406 230.890625 878.535156 222.25 C 893.507812 213.601562 898.636719 194.460938 889.992188 179.488281 "/>
<path fill-rule="evenodd" fill="#F8B319" d="M 836.769531 392.171875 L 930.945312 392.171875 L 930.945312 360.351562 L 888.300781 360.351562 C 873.445312 374.011719 855.996094 384.890625 836.769531 392.171875 "/>
</svg>
